<?xml version="1.0" standalone="no"?><!DOCTYPE svg PUBLIC "-//W3C//DTD SVG 1.1//EN" "http://www.w3.org/Graphics/SVG/1.1/DTD/svg11.dtd"><svg t="1608945710861" class="icon" viewBox="0 0 1024 1024" version="1.1" xmlns="http://www.w3.org/2000/svg" p-id="1276" width="200" height="200" xmlns:xlink="http://www.w3.org/1999/xlink"><defs><style type="text/css"></style></defs><path d="M818.14 133.1l-262.3-61.91a91.31 91.31 0 0 0-40.19-0.28l-283.56 62.77A90 90 0 0 0 162 231.3l55.42 516a89.62 89.62 0 0 0 49.55 71.08L489.59 929a90.33 90.33 0 0 0 81.53-0.69l212.16-109.86A89.94 89.94 0 0 0 831.46 748l55.61-517.54a90.31 90.31 0 0 0-68.93-97.36z m25.23 92.69l-55.6 517.54a46.15 46.15 0 0 1-24.7 36.1L550.91 889.24a46.32 46.32 0 0 1-41.79 0.35L286.45 779a45.94 45.94 0 0 1-25.39-36.42l-55.41-516a46.13 46.13 0 0 1 35.92-50l283.56-62.77a45.87 45.87 0 0 1 10-1.1 45.24 45.24 0 0 1 10.63 1.29l262.29 61.91a46.26 46.26 0 0 1 35.32 49.88z" p-id="1277" fill="#eceff1"></path><path d="M390.77 481q33.83-40.37 52.23-95l-32.85-7c-9.9 29.68-26.51 57.37-50.24 82.69zM522.13 415.35l27.3-19c-8.7-12.66-21-27.3-37.58-43.91l-27.3 17c15.82 16.64 28.45 32.07 37.58 45.91z" p-id="1278" fill="#eceff1"></path><path d="M393.54 348.09h261.94v51.83h36.79v-85.46H543.89c-3.95-11.88-7.51-23-11.46-32.44l-40 6.33a269.58 269.58 0 0 1 12.27 26.11h-148v85.46h36.81z" p-id="1279" fill="#eceff1"></path><path d="M617.5 418.12c24.5 29.27 43.91 56.18 58.5 80.71l30.09-20.56c-14.25-23-34.83-49.46-61.33-79.53z" p-id="1280" fill="#eceff1"></path><path d="M490.47 517.05h89.82c16.22 0 28.5-3.17 36.42-9.12 8.69-6.33 15-24.91 18.19-56.57l-35.21-11.48q-2.38 32.07-9.51 38c-3.56 3.56-9.1 5.53-17 5.53h-70c51.44-27.68 93.78-62.1 127.79-102.86l-27.29-21c-31.25 36.81-70.82 68.08-118.7 94.19v-59h-36.4v76.76q-48.09 21.38-106.83 36.81l15 31.65A799 799 0 0 0 458 505.16c6.76 7.92 17.43 11.89 32.47 11.89zM632.14 600.53H544.3v-72.81h-37.19v72.81h-84.3v-59.36h-37.19v108.42h37.19v-14.25h209.33v14.64h37.19V536.02h-37.19v64.51z" p-id="1281" fill="#eceff1"></path></svg>