<?xml version="1.0" standalone="no"?><!DOCTYPE svg PUBLIC "-//W3C//DTD SVG 1.1//EN" "http://www.w3.org/Graphics/SVG/1.1/DTD/svg11.dtd"><svg t="1605339799538" class="icon" viewBox="0 0 1024 1024" version="1.1" xmlns="http://www.w3.org/2000/svg" p-id="4372" xmlns:xlink="http://www.w3.org/1999/xlink" width="200" height="200"><defs><style type="text/css"></style></defs><path d="M512 85.333333a426.666667 426.666667 0 1 0 213.333333 796.16 42.666667 42.666667 0 1 0-42.666666-73.813333A341.333333 341.333333 0 1 1 853.333333 512v32a74.666667 74.666667 0 0 1-149.333333 0V362.666667a42.666667 42.666667 0 0 0-42.666667-42.666667 42.666667 42.666667 0 0 0-42.666666 33.706667A189.866667 189.866667 0 0 0 512 320a192 192 0 1 0 140.8 320 159.573333 159.573333 0 0 0 285.866667-96V512A426.666667 426.666667 0 0 0 512 85.333333z m0 533.333334a106.666667 106.666667 0 1 1 106.666667-106.666667 106.666667 106.666667 0 0 1-106.666667 106.666667z" p-id="4373" fill="#ffffff"></path></svg>