<svg height="382" width="382" xmlns="http://www.w3.org/2000/svg"><path d="m222.1 75.5c-9.9-2.6-20.3-4-31-4s-21.1 1.4-31 4l-35.88182-26.664507 17.48182-42.235493c15.8-4.2 32.3-6.5 49.4-6.5s33.7 2.2 49.4 6.5l14.82333 41.543787z" fill="#fefe33"/><path d="m160.1 306.8c9.9 2.6 20.3 4 31 4s21.1-1.4 31-4l32.01887 25.42743-13.51887 43.47257c-15.8 4.2-32.3 6.5-49.4 6.5s-33.7-2.2-49.4-6.5l-13.33036-41.77618z" fill="#8601af"/><path d="m106.5 106.5c-7.2 7.2-13.6 15.5-19 24.8s-9.3 19-12 28.9l-41.33024 13.9354-27.56976-32.4354c4.2-15.8 10.6-31.2 19.1-46.1 8.6-14.8 18.8-28 30.3-39.6l41.506667 8.146667z" fill="#66b032"/><path d="m160.1 75.5c-9.9 2.7-19.6 6.6-28.9 12s-17.6 11.8-24.8 19l-50.4-50.5c11.6-11.5 24.8-21.8 39.6-30.3 14.8-8.6 30.3-14.9 46.1-19.1z" fill="#d0ea2b"/><path d="m275.8 275.8c7.2-7.2 13.6-15.5 19-24.8s9.3-19 12-28.9l38.69728-20.04366 30.20272 38.54366c-4.2 15.8-10.6 31.2-19.1 46.1-8.6 14.8-18.8 28-30.3 39.6l-50.41-5.00333z" fill="#fe2712"/><path d="m222.1 306.8c9.9-2.7 19.6-6.6 28.9-12s17.6-11.8 24.8-19l50.4 50.4c-11.5 11.5-24.8 21.8-39.6 30.3s-30.3 14.9-46.1 19.1z" fill="#a7194b"/><path d="m75.5 222.1c2.7 9.9 6.6 19.6 12 28.9s11.8 17.6 19 24.8l-6.625917 42.71977-43.874083 7.68023c-11.5-11.5-21.8-24.8-30.3-39.6s-14.9-30.3-19.1-46.1l27.66487-31.20495z" fill="#0247fe"/><path d="m75.5 160.1c-2.6 9.9-4 20.3-4 31s1.4 21.1 4 31l-68.9 18.5c-4.2-15.8-6.5-32.3-6.5-49.4s2.2-33.7 6.5-49.4z" fill="#0392ce"/><path d="m306.8 160.1c-2.7-9.9-6.6-19.6-12-28.9s-11.8-17.6-19-24.8l4.285-43.205 46.115-7.195c11.5 11.5 21.8 24.8 30.3 39.6 8.6 14.8 14.9 30.3 19.1 46.1l-27.57169 40.11964z" fill="#fb9902"/><path d="m306.8 222.1c2.6-9.9 4.1-20.3 4.1-31s-1.4-21.1-4.1-31l68.9-18.5c4.2 15.8 6.5 32.3 6.5 49.4s-2.2 33.7-6.5 49.4z" fill="#fd5308"/><path d="m106.5 275.8c7.2 7.2 15.5 13.6 24.8 19s19 9.3 28.9 12l-18.5 68.9c-15.8-4.2-31.2-10.6-46.1-19.1-14.8-8.6-28-18.8-39.6-30.3z" fill="#3d01a4"/><path d="m275.8 106.5c-7.2-7.2-15.5-13.6-24.8-19s-19-9.3-28.9-12l18.5-68.9c15.8 4.2 31.2 10.6 46.1 19.1 14.8 8.6 28 18.8 39.6 30.3z" fill="#fabc02"/></svg>