<svg id="图层_1" data-name="图层 1" xmlns="http://www.w3.org/2000/svg" viewBox="0 0 32 32"><defs><style>.cls-1{fill:#1976d2;}.cls-2{fill:none;stroke:#1976d2;stroke-linejoin:round;}.cls-3{fill:#f8b62d;}</style></defs><title>样品</title><path class="cls-1" d="M17,29.76a7.54,7.54,0,0,1-2.24-.34,3.12,3.12,0,0,1-2.42-2.78.45.45,0,0,1,0-.11l.27-1.27a.38.38,0,0,0-.1-.26,1.83,1.83,0,0,0-.34-.35c-.23-.19-.44-.33-.63-.46a3,3,0,0,1-1.32-1.5,58.19,58.19,0,0,1-.37-11.58.5.5,0,0,1,.45-.42.51.51,0,0,1,.52.33,3.37,3.37,0,0,0,1.4,1.55,9.11,9.11,0,0,0,1.57.34,10.36,10.36,0,0,1,2.77.71,6.5,6.5,0,0,1,.85.6,7,7,0,0,0,4.86,1.85c2.1-.09,2.52-.88,3-1.79a4.06,4.06,0,0,1,1-1.34A3.64,3.64,0,0,1,28.41,12a2,2,0,0,0,.68-.17c.52-.29.65-.69.85-1.37a.49.49,0,0,1,.53-.36.51.51,0,0,1,.45.46,77.47,77.47,0,0,1-.63,9l-.11,1c-.33,3.21-.76,5.84-.76,5.87a.54.54,0,0,1-.11.23A6.42,6.42,0,0,1,27,28.57a11.3,11.3,0,0,1-3.94,0,5.94,5.94,0,0,0-3,.53A7.29,7.29,0,0,1,17,29.76Zm-3.66-3.09a2.21,2.21,0,0,0,1.72,1.79,6.39,6.39,0,0,0,4.54-.25,6.9,6.9,0,0,1,3.62-.61,9.61,9.61,0,0,0,3.47,0,5.51,5.51,0,0,0,1.76-1.46c.09-.57.45-2.9.74-5.67l.1-1c.22-2.09.52-5,.62-7a2.7,2.7,0,0,1-.33.22h0a2.64,2.64,0,0,1-1,.29,2.6,2.6,0,0,0-1.65.7,3.34,3.34,0,0,0-.73,1c-.52,1-1.16,2.22-3.83,2.33A8,8,0,0,1,16.8,15a6.41,6.41,0,0,0-.71-.51,10,10,0,0,0-2.46-.6,8.23,8.23,0,0,1-1.86-.44,4.12,4.12,0,0,1-1-.82,65.61,65.61,0,0,0,.44,9.68,2,2,0,0,0,.95,1c.2.15.43.31.69.52a2.45,2.45,0,0,1,.53.54,1.2,1.2,0,0,1,.23,1.13Z"/><path class="cls-1" d="M22,17.08A8.08,8.08,0,0,1,16.8,15a6.41,6.41,0,0,0-.71-.51,6.32,6.32,0,0,0-2.1-.4,7.63,7.63,0,0,1-1.77-.28,3.06,3.06,0,0,1-2.36-2.61c-.12-2.45,1.87-2.76,3.19-3a3.38,3.38,0,0,0,1.46-.43,1.3,1.3,0,0,0,.24-.54c.34-1.09.91-2.17,3.89-2.35,2.76-.17,3.71.62,4.62,1.37A5.06,5.06,0,0,0,25.14,7.4h0a11.91,11.91,0,0,0,1.57.34c1.52.26,3.23.56,4,2a2.29,2.29,0,0,1,.19.87.55.55,0,0,1,0,.18,2.85,2.85,0,0,1-1.32,2,2.64,2.64,0,0,1-1,.29,2.6,2.6,0,0,0-1.65.7,3.34,3.34,0,0,0-.73,1c-.52,1-1.16,2.22-3.83,2.33ZM19.37,5.9c-.2,0-.43,0-.66,0-2.54.15-2.78.91-3,1.64a2.06,2.06,0,0,1-.5,1,3.65,3.65,0,0,1-2,.69c-1.5.24-2.42.47-2.35,1.94,0,.79.56,1.32,1.69,1.72a7.4,7.4,0,0,0,1.52.22,6.68,6.68,0,0,1,2.5.52,6.5,6.5,0,0,1,.85.6,7,7,0,0,0,4.86,1.85c2.1-.09,2.52-.88,3-1.79a4.06,4.06,0,0,1,1-1.34A3.64,3.64,0,0,1,28.41,12a2,2,0,0,0,.68-.17,1.79,1.79,0,0,0,.82-1.28,1.46,1.46,0,0,0-.06-.38c-.55-1-2-1.22-3.31-1.45a14.83,14.83,0,0,1-1.7-.37h0a6.25,6.25,0,0,1-2.22-1.3A4.23,4.23,0,0,0,19.37,5.9Z"/><path class="cls-1" d="M12.67,25.11c.66-1,1.3-1.95,1.87-3,.28-.51.51-1.05.75-1.59l.7-1.62c-.32,1.13-.64,2.26-1,3.4s-.9,2.2-1.41,3.28Z"/><path class="cls-1" d="M26.52,14.07c-.46,1.53-.93,3.05-1.46,4.57a29.64,29.64,0,0,1-2.15,4.29,29.31,29.31,0,0,0,1.62-4.45c.38-1.54.7-3.1,1-4.65Z"/><path class="cls-1" d="M8.12,23.47a.56.56,0,0,1-.27-.08l-6.36-4a.5.5,0,0,1-.23-.42V12.32A.5.5,0,0,1,1.38,12c.19-.22,4.77-5.54,9.18-7.85,5.56-2.92,9.86-2.5,10-2.47a.28.28,0,0,1,.13,0l6.43,2.63a.5.5,0,0,1,.31.5.51.51,0,0,1-.38.45L22.23,6.53l-.25-1,3.4-.87-4.95-2A18.85,18.85,0,0,0,11,5c-3.85,2-8,6.63-8.76,7.48v6.15L8.1,22.37l2-1.44.59.81L8.42,23.37A.47.47,0,0,1,8.12,23.47Z"/><polyline class="cls-2" points="1.76 12.32 8.12 15.43 8.12 22.97"/><line class="cls-2" x1="8.12" y1="15.43" x2="10.21" y2="13.31"/><rect class="cls-1" x="26.47" y="4.79" width="1" height="3.5"/><polygon class="cls-3" points="22.32 21.45 22.32 24.45 21.32 24.45 21.32 25.45 22.32 25.45 23.32 25.45 23.32 21.45 22.32 21.45"/><polygon class="cls-3" points="25.32 22.45 26.32 22.45 26.32 21.45 24.32 21.45 24.32 22.45 24.32 24.45 24.32 25.45 26.32 25.45 26.32 24.45 25.32 24.45 25.32 22.45"/><rect class="cls-3" x="26.32" y="22.45" width="1" height="2"/></svg>