<?xml version="1.0" encoding="utf-8"?>
<!-- Generator: Adobe Illustrator 23.0.0, SVG Export Plug-In . SVG Version: 6.00 Build 0)  -->
<svg version="1.0" id="图层_1" xmlns="http://www.w3.org/2000/svg" xmlns:xlink="http://www.w3.org/1999/xlink" x="0px" y="0px"
	 viewBox="0 0 246.9 60" enable-background="new 0 0 246.9 60" xml:space="preserve">
<g>
	<linearGradient id="SVGID_1_" gradientUnits="userSpaceOnUse" x1="13.5808" y1="25.1719" x2="24.7179" y2="15.2569">
		<stop  offset="0.2071" style="stop-color:#B3B3B3"/>
		<stop  offset="0.3952" style="stop-color:#CDCDCD"/>
		<stop  offset="0.6008" style="stop-color:#E1E1E1"/>
		<stop  offset="0.8039" style="stop-color:#EEEEEE"/>
		<stop  offset="1" style="stop-color:#F2F2F2"/>
	</linearGradient>
	<path fill="url(#SVGID_1_)" d="M11.9,23.4c1.8,1.8,4.4,2.2,6.5,1.2c0.5-0.2,1-0.6,1.4-1c0.1-0.1,0.1-0.1,0.2-0.2l3.9-3.9
		c0,0,0.1-0.1,0.1-0.1l0.1-0.1l2.6-2.6c-2.3-2.3-5.9-2.3-8.2,0L16,19.3"/>
	<linearGradient id="SVGID_2_" gradientUnits="userSpaceOnUse" x1="5.0395" y1="19.9805" x2="24.182" y2="19.9805">
		<stop  offset="0" style="stop-color:#CCCCCC"/>
		<stop  offset="0.1496" style="stop-color:#DADADA"/>
		<stop  offset="0.4388" style="stop-color:#EEEEEE"/>
		<stop  offset="0.7244" style="stop-color:#FBFBFB"/>
		<stop  offset="1" style="stop-color:#FFFFFF"/>
	</linearGradient>
	<path fill="url(#SVGID_2_)" d="M16.1,19.5l-2.9-2.9c-2.3-2.3-5.9-2.3-8.2,0l0,0l6.8,6.8c2.3,2.3,5.9,2.3,8.2,0l0,0l4.1-4.1
		C22,21.5,18.4,21.6,16.1,19.5z"/>
	<linearGradient id="SVGID_3_" gradientUnits="userSpaceOnUse" x1="8.7167" y1="28.7893" x2="1.0005" y2="22.2762">
		<stop  offset="0" style="stop-color:#B3B3B3"/>
		<stop  offset="0.2373" style="stop-color:#CDCDCD"/>
		<stop  offset="0.4966" style="stop-color:#E1E1E1"/>
		<stop  offset="0.7527" style="stop-color:#EEEEEE"/>
		<stop  offset="1" style="stop-color:#F2F2F2"/>
	</linearGradient>
	<path fill="url(#SVGID_3_)" d="M9.5,34c1.8-1.8,2.2-4.4,1.2-6.5c-0.2-0.5-0.6-1-1-1.4c-0.1-0.1-0.1-0.1-0.2-0.2l-3.9-3.9
		c0,0-0.1-0.1-0.1-0.1l-0.1-0.1l-2.6-2.6c-2.3,2.3-2.3,5.9,0,8.2l2.6,2.6"/>
	<linearGradient id="SVGID_4_" gradientUnits="userSpaceOnUse" x1="0.9127" y1="31.3019" x2="11.1496" y2="31.3019">
		<stop  offset="0" style="stop-color:#CCCCCC"/>
		<stop  offset="0.1496" style="stop-color:#DADADA"/>
		<stop  offset="0.4388" style="stop-color:#EEEEEE"/>
		<stop  offset="0.7244" style="stop-color:#FBFBFB"/>
		<stop  offset="1" style="stop-color:#FFFFFF"/>
	</linearGradient>
	<path fill="url(#SVGID_4_)" d="M5.5,29.8l-2.9,2.9c-2.3,2.3-2.3,5.9,0,8.2l0,0L9.5,34c2.3-2.3,2.3-5.9,0-8.2l0,0l-4.1-4.1
		C7.6,23.9,7.6,27.5,5.5,29.8z"/>
	<linearGradient id="SVGID_5_" gradientUnits="userSpaceOnUse" x1="17.1036" y1="35.5358" x2="6.3324" y2="45.8472">
		<stop  offset="0" style="stop-color:#B3B3B3"/>
		<stop  offset="0.2373" style="stop-color:#CDCDCD"/>
		<stop  offset="0.4966" style="stop-color:#E1E1E1"/>
		<stop  offset="0.7527" style="stop-color:#EEEEEE"/>
		<stop  offset="1" style="stop-color:#F2F2F2"/>
	</linearGradient>
	<path fill="url(#SVGID_5_)" d="M19.9,36.6c-1.8-1.8-4.4-2.2-6.5-1.2c-0.5,0.2-1,0.6-1.4,1c-0.1,0.1-0.1,0.1-0.2,0.2l-3.9,3.9
		c0,0-0.1,0.1-0.1,0.1l-0.1,0.1L5,43.3c2.3,2.3,5.9,2.3,8.2,0l2.6-2.6"/>
	<linearGradient id="SVGID_6_" gradientUnits="userSpaceOnUse" x1="7.6434" y1="40.0195" x2="26.7859" y2="40.0195">
		<stop  offset="0" style="stop-color:#CCCCCC"/>
		<stop  offset="0.1496" style="stop-color:#DADADA"/>
		<stop  offset="0.4388" style="stop-color:#EEEEEE"/>
		<stop  offset="0.7244" style="stop-color:#FBFBFB"/>
		<stop  offset="1" style="stop-color:#FFFFFF"/>
	</linearGradient>
	<path fill="url(#SVGID_6_)" d="M15.7,40.5l2.9,2.9c2.3,2.3,5.9,2.3,8.2,0l0,0l-6.8-6.8c-2.3-2.3-5.9-2.3-8.2,0l0,0l-4.1,4.1
		C9.9,38.5,13.4,38.4,15.7,40.5z"/>
	<linearGradient id="SVGID_7_" gradientUnits="userSpaceOnUse" x1="22.8033" y1="30.2986" x2="29.7025" y2="37.6717">
		<stop  offset="0" style="stop-color:#B3B3B3"/>
		<stop  offset="0.2373" style="stop-color:#CDCDCD"/>
		<stop  offset="0.4966" style="stop-color:#E1E1E1"/>
		<stop  offset="0.7527" style="stop-color:#EEEEEE"/>
		<stop  offset="1" style="stop-color:#F2F2F2"/>
	</linearGradient>
	<path fill="url(#SVGID_7_)" d="M22.4,26c-1.8,1.8-2.2,4.4-1.2,6.5c0.2,0.5,0.6,1,1,1.4c0.1,0.1,0.1,0.1,0.2,0.2l3.9,3.9
		c0,0,0.1,0.1,0.1,0.1l0.1,0.1l2.6,2.6c2.3-2.3,2.3-5.9,0-8.2l-2.6-2.6"/>
	<linearGradient id="SVGID_8_" gradientUnits="userSpaceOnUse" x1="20.6757" y1="28.6981" x2="30.9127" y2="28.6981">
		<stop  offset="0" style="stop-color:#CCCCCC"/>
		<stop  offset="0.1496" style="stop-color:#DADADA"/>
		<stop  offset="0.4388" style="stop-color:#EEEEEE"/>
		<stop  offset="0.7244" style="stop-color:#FBFBFB"/>
		<stop  offset="1" style="stop-color:#FFFFFF"/>
	</linearGradient>
	<path fill="url(#SVGID_8_)" d="M26.3,30.2l2.9-2.9c2.3-2.3,2.3-5.9,0-8.2l0,0L22.4,26c-2.3,2.3-2.3,5.9,0,8.2l0,0l4.1,4.1
		C24.3,36.1,24.2,32.5,26.3,30.2z"/>
</g>
<g>
	<path fill="#FFFFFF" d="M79,42.6v1.8H49.6v-1.8h8.3V15h5v27.6h2.7V15h5v27.6H79z M52.3,37c-0.4-0.2-0.8-0.4-1-0.8
		c-0.3-0.3-0.4-0.8-0.5-1.2l-1.2-17.8h4.7l1.3,18.9c0,0.1,0,0.2,0.1,0.3c0.1,0.1,0.2,0.2,0.3,0.2l0.8,0.3v1.8L52.3,37z M77.8,35
		c0,0.5-0.2,0.9-0.5,1.2c-0.3,0.3-0.6,0.6-1,0.8l-4.5,1.7V37l0.8-0.3c0.1,0,0.2-0.1,0.3-0.2c0.1-0.1,0.1-0.2,0.1-0.3l1.3-18.9H79
		L77.8,35z"/>
	<path fill="#FFFFFF" d="M112,29.4v1.8l-9-1.2c-0.2,0-0.3-0.1-0.5-0.1c-0.2,0-0.4-0.1-0.5-0.2l-4.2-2.2l-5.3,2.3
		c-0.1,0.1-0.3,0.1-0.4,0.1c-0.1,0-0.3,0-0.4,0.1l-9.6,1.2v-1.8l3.3-0.4c0.1,0,0.2,0,0.2,0c0.1,0,0.2,0,0.2-0.1l8-3.6l-6-3.2
		L87.3,23h-5l4-7.9h5l-1,1.9h17.1c0.6,0,1,0.2,1.4,0.6c0.4,0.4,0.6,0.8,0.6,1.4v2.4c0,0.8-0.4,1.4-1.3,1.7l-6.1,2.6l6.3,3.3
		c0.1,0,0.2,0.1,0.2,0.1s0.2,0,0.2,0L112,29.4z M107.5,33.1c0.6,0,1,0.2,1.4,0.6s0.6,0.9,0.6,1.4v7.7c0,0.6-0.2,1-0.6,1.4
		c-0.4,0.4-0.8,0.6-1.4,0.6H96l-1-1.8h8.6c0.2,0,0.4-0.1,0.6-0.2c0.1-0.1,0.2-0.3,0.2-0.6v-6.4c0-0.2-0.1-0.4-0.2-0.6
		c-0.1-0.2-0.3-0.3-0.6-0.3h-9.8l-3,6.5c-0.3,0.5-0.8,0.9-1.4,1.1L82.1,45v-1.9l2.7-0.8c0.3-0.1,0.5-0.3,0.6-0.5l3.3-6.9H83v-1.8
		h6.5l1.3-2.8h5.1l-1.3,2.8H107.5z M97.9,23.5l6.3-2.8c0.1,0,0.2-0.1,0.2-0.3v-1.3c0-0.2-0.1-0.3-0.3-0.3H89.4l-0.9,1.8h3.5
		L97.9,23.5z"/>
	<path fill="#FFFFFF" d="M121.1,20c-0.2,0.4-0.4,0.7-0.7,1c-0.3,0.2-0.7,0.4-1.1,0.4l-4.5,0.5v-1.8l1-0.1c0.2,0,0.4-0.1,0.4-0.3
		l1.9-4.6h5l-0.5,1.2h7.7v1.8h-2.9l1.4,3.8h-4.7l-1.4-3.8h-0.8L121.1,20z M141.9,24.4c0.6,0,1,0.2,1.4,0.6c0.4,0.4,0.6,0.9,0.6,1.4
		v3.2H141c0.4,0.1,0.6,0.4,0.8,0.7c0.2,0.3,0.3,0.7,0.3,1.1v2.4c0,0.6-0.2,1-0.6,1.4c-0.4,0.4-0.8,0.6-1.4,0.6h-17.3v2.7h17.8
		c0.6,0,1,0.2,1.4,0.6c0.4,0.4,0.6,0.8,0.6,1.4v2.4c0,0.6-0.2,1-0.6,1.4c-0.4,0.4-0.8,0.6-1.4,0.6h-20.9c-0.6,0-1-0.2-1.4-0.6
		c-0.4-0.4-0.6-0.8-0.6-1.4V31.4c0-0.4,0.1-0.8,0.3-1.1c0.2-0.3,0.5-0.5,0.8-0.7h-3.3v-3.1c0-0.6,0.2-1.1,0.6-1.5
		c0.4-0.4,0.9-0.6,1.5-0.6h9.5l-0.5-1.9h5.4l0.5,1.9H141.9z M138.9,29.5v-2.6c0-0.2-0.1-0.4-0.2-0.5c-0.1-0.1-0.3-0.2-0.5-0.2h-16.7
		c-0.2,0-0.4,0.1-0.5,0.2s-0.2,0.3-0.2,0.5v2.6H138.9z M137.1,31.7c0-0.1,0-0.2-0.1-0.3c-0.1-0.1-0.2-0.1-0.3-0.1h-13.3
		c-0.1,0-0.2,0-0.3,0.1c-0.1,0.1-0.1,0.2-0.1,0.3V34h13.7c0.1,0,0.2,0,0.3-0.1c0.1-0.1,0.1-0.2,0.1-0.3V31.7z M122.9,40.2v2.2
		c0,0.1,0,0.2,0.1,0.3c0.1,0.1,0.2,0.1,0.3,0.1h13.7c0.1,0,0.2,0,0.3-0.1c0.1-0.1,0.1-0.2,0.1-0.3v-1.8c0-0.1,0-0.2-0.1-0.3
		c-0.1-0.1-0.2-0.1-0.3-0.1H122.9z M144.8,18.1H143l1.4,3.8h-4.7l-1.4-3.8H137l-0.8,1.9c-0.2,0.4-0.4,0.7-0.7,1
		c-0.3,0.2-0.7,0.4-1.1,0.4l-4.5,0.5v-1.8l1-0.1c0.2,0,0.4-0.1,0.4-0.3l1.9-4.6h5l-0.5,1.2h7.1V18.1z"/>
	<path fill="#FFFFFF" d="M147.5,15.6h11v1.8h-3v10.4h2.7v1.8h-2.7v11.5l3-0.6v1.9l-11,2.1v-1.9l3-0.6V29.6h-2.7v-1.8h2.7V17.4h-3
		V15.6z M177.5,42.9v1.8h-18.3v-1.8h6.6v-5.1h-6.1V36h6.1v-4.9h-4.1c-0.6,0-1-0.2-1.4-0.6c-0.4-0.4-0.6-0.8-0.6-1.4V17.3
		c0-0.6,0.2-1,0.6-1.4c0.4-0.4,0.8-0.6,1.4-0.6H175c0.6,0,1,0.2,1.4,0.6c0.4,0.4,0.6,0.8,0.6,1.4v11.9c0,0.6-0.2,1-0.6,1.4
		c-0.4,0.4-0.8,0.6-1.4,0.6h-4.1V36h6.1v1.8h-6.1v5.1H177.5z M165.1,17.1c-0.1,0-0.2,0-0.3,0.1c-0.1,0.1-0.1,0.2-0.1,0.3v4.7h1.7
		v-5.2H165.1z M164.6,28.8c0,0.1,0,0.2,0.1,0.3c0.1,0.1,0.2,0.1,0.3,0.1h1.2v-5.2h-1.7V28.8z M172.1,17.6c0-0.1,0-0.2-0.1-0.3
		c-0.1-0.1-0.2-0.1-0.3-0.1h-1.2v5.2h1.7V17.6z M171.6,29.3c0.1,0,0.2,0,0.3-0.1c0.1-0.1,0.1-0.2,0.1-0.3v-4.7h-1.7v5.2H171.6z"/>
	<path fill="#FFFFFF" d="M189.7,35l-2.2,6.2c-0.2,0.3-0.5,0.6-0.7,0.8c-0.3,0.2-0.6,0.4-0.9,0.6l-5.5,1.9v-1.9l1.6-0.6
		c0.2-0.1,0.4-0.2,0.5-0.4l2.3-6.5H189.7z M197.9,32.4V43c0,0.6-0.2,1-0.6,1.4c-0.4,0.4-0.8,0.6-1.4,0.6h-6.7l-1-1.8h4.1
		c0.1,0,0.2,0,0.3-0.1c0.1-0.1,0.1-0.2,0.1-0.3v-9.9l-8.9,0.6c-0.6,0-1.1-0.1-1.5-0.4c-0.4-0.3-0.6-0.7-0.7-1.1
		c-0.1-0.4-0.1-0.8,0.1-1.3c0.2-0.4,0.6-0.8,1.1-1.1l6.5-3.1l-5.2,0.3c-0.6,0-1.1-0.1-1.5-0.4c-0.4-0.3-0.6-0.6-0.7-1
		c-0.1-0.4,0-0.8,0.2-1.2c0.2-0.4,0.6-0.8,1.1-1l9.7-4.9h-11.9v-1.8h22.3c0.3,0,0.6-0.1,0.7-0.4l0.6-1.1h5.1l-1.2,1.9
		c-0.3,0.4-0.6,0.8-1,1c-0.4,0.2-0.9,0.3-1.4,0.3h-6.1l-9.6,5.1c-0.2,0.1-0.4,0.2-0.4,0.4c-0.1,0.1-0.1,0.3-0.1,0.4
		c0,0.1,0.1,0.2,0.3,0.3c0.1,0.1,0.3,0.1,0.6,0.1l2.7-0.1l7-3.4h7.1L191,29.7c-0.2,0.1-0.3,0.2-0.4,0.4c-0.1,0.1-0.1,0.3-0.1,0.4
		c0,0.1,0.1,0.2,0.2,0.3c0.1,0.1,0.3,0.1,0.5,0.1l11.7-0.7l-1.7-3.6h5l3.5,7.4h-5l-1-2L197.9,32.4z M210.3,42.5v1.9l-5.5-1.9
		c-0.4-0.1-0.7-0.3-0.9-0.6c-0.3-0.2-0.5-0.5-0.7-0.8l-2.2-6.2h5l2.3,6.5c0.1,0.2,0.3,0.3,0.5,0.4L210.3,42.5z"/>
	<path fill="#FFFFFF" d="M215.7,28.8c-0.5,0.1-1,0.1-1.3,0c-0.4-0.1-0.7-0.4-0.9-0.6c-0.2-0.3-0.3-0.6-0.4-1c0-0.4,0.1-0.8,0.3-1.2
		l5-10.9h4.7l-5.3,10.9c-0.1,0.2-0.1,0.3,0,0.4c0.1,0.1,0.2,0.2,0.4,0.1l0.4-0.1l2-3.6h4.7l-6.8,13c-0.1,0.2-0.1,0.4,0,0.5
		c0.1,0.2,0.3,0.2,0.5,0.1l5.7-1.8v1.8l-8.3,2.5c-0.6,0.2-1.1,0.2-1.6,0.1c-0.5-0.1-0.8-0.4-1.1-0.7c-0.3-0.3-0.4-0.7-0.5-1.2
		c0-0.5,0.1-1,0.4-1.5l3.8-7.2L215.7,28.8z M224.8,42.1L213.1,45v-1.9l11.7-2.9V42.1z M232.8,30.2l-0.8,10.5c0,0.6-0.2,1.2-0.6,1.6
		c-0.4,0.4-0.8,0.8-1.4,1l-5.3,1.7v-1.9l1.6-0.6c0.3-0.1,0.5-0.4,0.6-0.7l1-10.9l-0.6,0.1c-0.4,0-0.7,0-1-0.1
		c-0.3-0.1-0.6-0.3-0.8-0.5c-0.2-0.2-0.3-0.5-0.4-0.8c-0.1-0.3-0.1-0.6,0-1l2.4-8.3h-2.6v-1.8h6.9l-1.8-3.5h5l1.8,3.5h5.6v1.8h-9.9
		l-2.2,7.9c0,0.1,0,0.3,0.1,0.4c0.1,0.1,0.2,0.1,0.4,0.1l6.3-0.8l-1.3-5h5l2.2,8.3h-5l-0.4-1.6L232.8,30.2z M239.3,42.5
		c0,0.1,0,0.2,0.1,0.3c0.1,0.1,0.2,0.1,0.3,0.1h3.2l-1,1.8h-5.8c-0.6,0-1-0.2-1.4-0.6c-0.4-0.4-0.6-0.8-0.6-1.4V31.8h5V42.5z"/>
</g>
</svg>
