<?xml version="1.0" encoding="UTF-8"?>
<svg width="562px" height="562px" viewBox="0 0 562 562" version="1.1" xmlns="http://www.w3.org/2000/svg" xmlns:xlink="http://www.w3.org/1999/xlink">
    <!-- Generator: Sketch 49.1 (51147) - http://www.bohemiancoding.com/sketch -->
    <title>boost</title>
    <desc>Created with Sketch.</desc>
    <defs>
        <circle id="path-1" cx="341.032" cy="210.129" r="42.81"></circle>
    </defs>
    <g id="Page-1" stroke="none" stroke-width="1" fill="none" fill-rule="evenodd">
        <g id="boost" transform="translate(275.000000, 282.000000) scale(-1, 1) translate(-275.000000, -282.000000) translate(19.000000, 1.000000)" fill-rule="nonzero">
            <g id="Group-2" opacity="0.6" transform="translate(12.000000, 0.000000)">
                <polygon id="Shape" fill="#E6E2E0" points="112.848 318.271 65.266 391.203 157.797 483.734 230.729 436.152"></polygon>
                <polygon id="Shape" fill="#AEAEAE" points="387.814 313.006 235.994 161.186 101.752 182.156 18.279 265.628 126.981 270.199 278.801 422.019 283.372 530.721 366.844 447.248"></polygon>
                <path d="M487.255,61.745 C397.527,36.844 313.926,83.254 274.691,122.489 C262.968,134.212 87.687,309.493 87.687,309.493 L239.507,461.313 C239.507,461.313 398.189,302.631 426.51,274.31 C465.745,235.075 512.156,151.473 487.255,61.745 Z" id="Shape" fill="#ECE5E3"></path>
                <g id="Oval">
                    <use fill="#FFFFFF" fill-rule="evenodd" xlink:href="#path-1"></use>
                    <circle stroke="#11113F" stroke-width="25" cx="341.032" cy="210.129" r="55.31"></circle>
                </g>
                <path d="M492.624,64.441 C491.537,60.523 488.475,57.463 484.56,56.375 C442.338,44.657 396.605,46.937 352.304,62.965 C317.976,75.385 284.59,96.206 260.707,120.091 L224.682,156.116 L94.172,176.502 C91.746,176.881 89.504,178.021 87.768,179.756 L4.296,263.228 C1.045,266.48 0.023,271.345 1.693,275.628 C3.363,279.911 7.408,282.801 12,282.995 L94.339,286.458 L73.703,307.094 C69.179,311.618 69.179,318.954 73.703,323.479 L85.748,335.523 L49.773,390.667 C46.779,395.256 47.408,401.314 51.284,405.189 L143.815,497.719 C147.69,501.593 153.748,502.226 158.338,499.23 L213.479,463.254 L225.524,475.299 C230.048,479.822 237.384,479.822 241.909,475.299 L262.545,454.663 L266.008,536.999 C266.201,541.592 269.092,545.637 273.375,547.306 C274.742,547.839 276.167,548.097 277.58,548.097 C280.597,548.097 283.56,546.916 285.774,544.704 L369.246,461.232 C370.983,459.495 372.121,457.253 372.501,454.828 L392.888,324.319 L428.912,288.294 C452.796,264.41 473.618,231.024 486.038,196.698 C502.063,152.396 504.342,106.662 492.624,64.441 Z M153.549,474.686 L74.314,395.451 L102.49,352.264 L141.42,391.195 L157.805,407.58 L196.735,446.51 L153.549,474.686 Z M412.525,271.91 L373.83,310.606 C373.826667,310.609333 360.401,324.035 333.553,350.883 L349.938,367.268 L365.094,352.112 L350.19,447.52 L288.048,509.663 L284.8,432.407 L357.172,360.035 L340.787,343.65 L264.849,419.588 C264.835667,419.601333 254.457667,429.979 233.715,450.721 L223.385,440.391 C223.306333,440.309667 206.907667,423.911 174.189,391.195 L157.804,374.812 L108.965,325.973 C108.887667,325.893 105.325667,322.330333 98.279,315.285 L129.355,284.209 C129.368333,284.196333 141.033333,272.198 164.35,248.214 L147.966,231.829 L116.594,264.201 L39.338,260.951 L101.48,198.809 L196.888,183.906 L147.732,232.06 L164.116,248.445 L238.257,175.304 C238.315,175.247333 251.259,162.303333 277.089,136.472 C309.328,104.236 385.877,56.47 471.953,77.046 C492.529,163.123 444.763,239.674 412.525,271.91 Z" id="Shape" fill="#11113F"></path>
                <polygon id="Combined-Shape" fill="#11113F" points="133.4 53.6 187 53.6 187 83.4 133.4 83.4 133.4 137 103.6 137 103.6 83.4 50 83.4 50 53.6 103.6 53.6 103.6 0 133.4 0"></polygon>
            </g>
            <g id="Group" transform="translate(0.000000, 49.000000)" fill="#FFA235">
                <path d="M100.53,409.819 C96.006,405.296 88.67,405.296 84.146,409.819 L22.124,471.842 C17.6,476.366 17.6,483.702 22.124,488.227 C24.387,490.488 27.351,491.62 30.316,491.62 C33.281,491.62 36.246,490.488 38.508,488.227 L100.53,426.204 C105.054,421.679 105.054,414.343 100.53,409.819 Z" id="Shape"></path>
                <path d="M63.993,389.667 C68.517,385.143 68.517,377.807 63.993,373.282 C59.469,368.759 52.133,368.759 47.608,373.282 L3.394,417.499 C-1.13,422.023 -1.13,429.359 3.394,433.884 C5.655,436.145 8.621,437.277 11.586,437.277 C14.551,437.277 17.516,436.145 19.778,433.884 L63.993,389.667 Z" id="Shape"></path>
                <path d="M122.333,448.007 L78.117,492.223 C73.593,496.747 73.593,504.083 78.117,508.608 C80.38,510.869 83.344,512.001 86.309,512.001 C89.274,512.001 92.239,510.869 94.501,508.608 L138.717,464.392 C143.241,459.868 143.241,452.532 138.717,448.007 C134.194,443.483 126.858,443.483 122.333,448.007 Z" id="Shape"></path>
            </g>
        </g>
    </g>
</svg>
