<svg height="19" viewBox="0 0 20 19" width="20" xmlns="http://www.w3.org/2000/svg"><g fill="none" fill-rule="evenodd"><path d="m0 0h20v19h-20z"/><path d="m12.9211734 3.3584951c1.1444691-1.22412972 1.5292056-2.40135791 1.1834298-2.97824663-1.0665478-1.77287752-11.07943492 3.79433311-10.01288712 5.57190078.31655528.52529704 1.57790633.80670617 3.25808438.48308567l3.32626554 5.54844998c-1.19804002 1.1256366-1.63634734 2.218442-1.11524864 3.0908103.49187824.8254668 2.90256844.0656622 5.24507754-1.1537774 0 .0046901 1.9334223 3.2315148 1.9334223 3.2315148.3555159.5909592 1.5340756 2.002695 1.8408907 1.8338495.3068151-.1688454-.3749963-1.8619904-.7305122-2.4529496l-1.9285522-3.2174443c2.2597177-1.355454 4.1444392-2.987627 3.652561-3.8084036-.5210987-.87236831-1.7240088-1.05059409-3.3360057-.61910009z" fill="#444" transform="matrix(-1 0 0 1 23.664754 0)"/></g></svg>